<svg id="Layer_1" data-name="Layer 1" xmlns="http://www.w3.org/2000/svg" viewBox="0 0 107.9 123.7"><path d="M117.5,33.5l.3-.2a6.8,6.8,0,0,0-2.4-2.6L67.1,2.9A5.9,5.9,0,0,0,64,2.2a7.1,7.1,0,0,0-3.1.7l-48,27.9A6.9,6.9,0,0,0,10,36.2V91.9a6.2,6.2,0,0,0,.9,3.4h-.2a5.7,5.7,0,0,0,1.9,1.9l48.2,27.9a5.9,5.9,0,0,0,3.1.7,7.1,7.1,0,0,0,3.1-.7l48-27.9a6.9,6.9,0,0,0,2.9-5.4V36.1A4.9,4.9,0,0,0,117.5,33.5ZM64,88.5A24.5,24.5,0,0,0,85.3,76.1l12.9,7.6a39.5,39.5,0,1,1,.1-39.2L85.3,52A24.5,24.5,0,1,0,64,88.5Z" transform="translate(-10 -2.2)"/></svg>