<svg id="a9a7ffe7-bffb-40a8-a3c8-a3664a9c484c" xmlns="http://www.w3.org/2000/svg" viewBox="0 0 796 711.8"><defs><style>.cls-1{fill:#e6e6e6;}.cls-2{fill:#3f3d56;}.cls-3{fill:#fff;}.cls-4{fill:#ffb8b8;}.cls-5{fill:#2f2e41;}.cls-6{fill:#575a89;}.cls-7{fill:#d0cde1;}</style></defs><path class="cls-1" d="M97.1,554.4l-8.9-35a441,441,0,0,0-48.3-17.3l-1.1,16.2-4.6-17.9C13.8,494.6,0,492,0,492s18.7,71.2,57.9,125.5l45.8,8.1-35.6,5.1A194.7,194.7,0,0,0,84,647.5c57.1,53,120.7,77.3,142,54.3s-7.6-84.6-64.7-137.5c-17.7-16.5-39.9-29.6-62.1-40Z" transform="translate(0 0)"/><path class="cls-1" d="M181.6,516.4l10.5-34.6a457.7,457.7,0,0,0-32.3-39.9l-9.4,13.4,5.4-17.7c-14.5-15.5-25-24.9-25-24.9S110,483.3,115.5,550.2l35,30.5-33-14a174.7,174.7,0,0,0,4.8,22.6c21.5,74.9,63.4,128.5,93.5,119.9S253,632.8,231.6,558c-6.7-23.2-18.9-46-32.6-66.4Z" transform="translate(0 0)"/><path class="cls-1" d="M682.2,657.9l6.6-7.1a132,132,0,0,0-3.2-13.5l-3.8,2.2,3.4-3.7c-1.7-5.4-3.1-8.9-3.1-8.9s-13.4,14.6-19.9,31.4l4.9,11.5-6.4-7.2q-.9,3-1.5,6c-3.6,20.7.3,38.6,8.6,40.1s18-14.2,21.6-34.8a66.4,66.4,0,0,0-.1-19.9Z" transform="translate(0 0)"/><path class="cls-1" d="M780,672.1l9.4-2.7a101.3,101.3,0,0,0,4.2-13.2h-4.3l4.7-1.4c1.4-5.5,2-9.3,2-9.3s-19,5.7-33.3,16.7L761,674.5l-1.7-9.5a36.6,36.6,0,0,0-4.4,4.4c-13.8,15.8-19.8,33.1-13.4,38.6s22.7-2.7,36.5-18.6a66.8,66.8,0,0,0,10.2-17Z" transform="translate(0 0)"/><path class="cls-2" d="M518.5,48.3V660.5a48.2,48.2,0,0,1-48.3,48.2H232.3A48.2,48.2,0,0,1,184,660.5V48.3A48.3,48.3,0,0,1,232.3,0h28.9a22.9,22.9,0,0,0,12.6,29.9,23.1,23.1,0,0,0,8.6,1.7H418a23,23,0,0,0,23-23A23.1,23.1,0,0,0,439.3,0h30.9A48.3,48.3,0,0,1,518.5,48.3Z" transform="translate(0 0)"/><path class="cls-3" d="M317.7,253.5a23.7,23.7,0,0,1,12-20.6,23.9,23.9,0,1,0,0,41.3A23.8,23.8,0,0,1,317.7,253.5Z" transform="translate(0 0)"/><path class="cls-3" d="M347.8,253.5a23.6,23.6,0,0,1,11.9-20.6,23.9,23.9,0,1,0,0,41.3A23.7,23.7,0,0,1,347.8,253.5Z" transform="translate(0 0)"/><circle class="cls-3" cx="377.1" cy="253.5" r="23.9"/><rect class="cls-3" x="244.6" y="409.9" width="213.6" height="2"/><circle class="cls-3" cx="251.3" cy="390.7" r="6.7" transform="translate(-174.6 576.2) rotate(-80.8)"/><rect class="cls-3" x="244.6" y="477.3" width="213.6" height="2"/><circle class="cls-3" cx="251.3" cy="458.1" r="6.7" transform="translate(-241.1 632.8) rotate(-80.8)"/><path class="cls-3" d="M417,328.2H277.8a5,5,0,0,1-5-5V183.9a5,5,0,0,1,5-5H417a5,5,0,0,1,5,5V323.2A5,5,0,0,1,417,328.2ZM277.8,180.9a3,3,0,0,0-3,3V323.2a3,3,0,0,0,3,3H417a3,3,0,0,0,3-3V183.9a3,3,0,0,0-3-3Z" transform="translate(0 0)"/><rect class="cls-3" x="382.8" y="522.2" width="75.3" height="31.47" rx="4"/><path class="cls-4" d="M644.5,325.1s-2.7,17.5,0,20.3S627,371.2,627,371.2l-16.6-23s7.4-12,4.6-22.2Z" transform="translate(0 0)"/><polygon class="cls-5" points="583.6 457 571.6 585.3 576.2 685 598.4 678.5 599.3 589 625.1 511.5 640.8 595.5 639 680.4 666.7 681.3 668.5 587.2 671.8 455.7 583.6 457"/><path class="cls-5" d="M639.9,677.6v20.3s-4.6,14.8,10.2,13.8,13.8-7.4,13.8-7.4l-5.5-24.9Z" transform="translate(0 0)"/><path class="cls-5" d="M597.5,677.6v20.3s4.6,14.8-10.2,13.8-13.8-7.4-13.8-7.4l5.5-24.9Z" transform="translate(0 0)"/><circle class="cls-4" cx="628.8" cy="314" r="21.2"/><path class="cls-6" d="M627.9,361.1l1.9-9.3h4.6l8.9-12.8,7.7,7.3,1.8,43.4H603l4.6-46.2,6.7-4.5s-1.2,15.6,11.8,15.6Z" transform="translate(0 0)"/><path class="cls-7" d="M608.5,350.9s7.7,9.7,19.1,9,22.5-9.9,22.5-9.9l15.6,120s-17.5,1.8-23-7.4l-42.5-.9.9-111.7Z" transform="translate(0 0)"/><path class="cls-5" d="M614.8,337.4l-40.4,20,10.1,57.2s3.7,21.2,0,29.5-7.3,63.7-7.3,63.7,41.5,4.6,35.9-60.9S614.8,337.4,614.8,337.4Z" transform="translate(0 0)"/><path class="cls-4" d="M590.1,475.5l5.5,5.5s16.6,28.6,24,18.5-12.9-27.7-12.9-27.7l-9.2-7.4Z" transform="translate(0 0)"/><path class="cls-5" d="M643.3,337.4l40,20-13.9,68.3s1,22.1,5.6,34.1,2.7,47.1,2.7,47.1-5.5,21.2-17.5-31.4S643.3,337.4,643.3,337.4Z" transform="translate(0 0)"/><path class="cls-4" d="M674.1,442.3h-8.4s-27.6-3.7-25.8,7.4,27.7,8.3,27.7,8.3l10.1-1Z" transform="translate(0 0)"/><path class="cls-5" d="M579.9,354.6l-6.4,2.8s-6.5,13.8-7.4,18.4-12,60-9.2,66.5,30.4,40.6,30.4,40.6L603,466.3l-23.1-31.4,6.5-39.7Z" transform="translate(0 0)"/><path class="cls-5" d="M669.4,355.5l12.2,1.1,2.6.8s25.8,70.1,20.3,81.2S675,470,675,470l-6.5-28.6,12-11.1-12-36.9Z" transform="translate(0 0)"/><path class="cls-5" d="M646.8,297.6s5.5-10.4-6.7-11.3c0,0-11.1-6.7-20,.9,0,0-7.7-1.9-10,3.8,0,0-1.1-2.8,2.3-4.7,0,0-7.8-1.9-7.8,7.6,0,0-3.3,9.4,0,18s4.4,9.4,4.4,9.4-5.4-17.9,7.9-18.8,28.2-9.1,29.3,1.3,3.4,13.3,3.4,13.3S659.6,301.9,646.8,297.6Z" transform="translate(0 0)"/></svg>