<svg id="b692d93a-f629-4531-a33b-6f799117a7ad" xmlns="http://www.w3.org/2000/svg" viewBox="0 0 698.84 567.34"><defs><style>.cls-1{fill:#e6e6e6;}.cls-2{fill:#fff;}.cls-3{fill:#0f4c75;}.cls-4{fill:#fbbebe;}.cls-5{fill:#2f2e41;}</style></defs><rect class="cls-1" width="420" height="550"/><rect class="cls-2" x="25" y="28.5" width="370" height="100"/><rect class="cls-2" x="164" y="162.5" width="230" height="360"/><rect class="cls-1" x="182.16" y="65.87" width="93.42" height="7.02"/><rect class="cls-1" x="169.66" y="84.11" width="117.57" height="7.02"/><rect class="cls-1" x="228.16" y="245.58" width="93.42" height="7.02"/><rect class="cls-3" x="228.16" y="266.19" width="144.27" height="7.02"/><rect class="cls-1" x="229.66" y="285.82" width="117.57" height="7.02"/><rect class="cls-1" x="228.16" y="307.36" width="68.64" height="7.02"/><rect class="cls-3" x="228.16" y="328.4" width="103.59" height="7.02"/><rect class="cls-1" x="185.58" y="243.37" width="11.44" height="11.44"/><rect class="cls-3" x="185.58" y="263.98" width="11.44" height="11.44"/><rect class="cls-1" x="185.58" y="283.61" width="11.44" height="11.44"/><rect class="cls-1" x="185.58" y="305.15" width="11.44" height="11.44"/><rect class="cls-3" x="185.58" y="326.19" width="11.44" height="11.44"/><rect class="cls-1" x="228.16" y="349.58" width="93.42" height="7.02"/><rect class="cls-3" x="228.16" y="370.19" width="144.27" height="7.02"/><rect class="cls-1" x="229.66" y="389.82" width="117.57" height="7.02"/><rect class="cls-1" x="228.16" y="411.36" width="68.64" height="7.02"/><rect class="cls-1" x="228.16" y="432.4" width="103.59" height="7.02"/><rect class="cls-1" x="185.58" y="347.37" width="11.44" height="11.44"/><rect class="cls-3" x="185.58" y="367.98" width="11.44" height="11.44"/><rect class="cls-1" x="185.58" y="387.61" width="11.44" height="11.44"/><rect class="cls-1" x="185.58" y="409.15" width="11.44" height="11.44"/><rect class="cls-1" x="185.58" y="430.19" width="11.44" height="11.44"/><path class="cls-3" d="M183.07,48.77A29.73,29.73,0,1,0,212.79,78.5,29.73,29.73,0,0,0,183.07,48.77Zm0,8.92a8.92,8.92,0,1,1-8.92,8.92h0A9,9,0,0,1,183.07,57.69Zm0,42.94a21.68,21.68,0,0,1-17.84-9.52c.14-6,11.89-9.22,17.84-9.22s17.69,3.27,17.83,9.22A21.68,21.68,0,0,1,183.07,100.63Z" transform="translate(-97.18)"/><path class="cls-4" d="M716.93,168.84s10.15,21.43,16.92,23.69l-19.18,29.32-15.79-19.17s1.13-13.53-2.25-19.17S716.93,168.84,716.93,168.84Z" transform="translate(-97.18)"/><circle class="cls-4" cx="603.96" cy="166.59" r="21.43"/><polygon class="cls-4" points="574.63 319.97 580.27 335.76 587.04 327.86 581.36 309.88 574.63 319.97"/><path class="cls-5" d="M687.61,312.08s-6.77,28.19-3.39,41.72,13.54,106,13.54,106l6.76,73.3,27.07,2.26-3.38-85.71,3.38-74.44,19.17,72.18v88l32.71,1.13L780.09,422.6s2.25-88-12.41-99.25-16.92-13.53-16.92-13.53Z" transform="translate(-97.18)"/><path class="cls-5" d="M710.16,532l-2.25,7.89L704.52,550s-10.15,20.3,6.77,16.92S726,555.68,726,555.68s5.64-3.38,4.51-4.51-1.13-18-1.13-18Z" transform="translate(-97.18)"/><path class="cls-5" d="M775.57,532l2.26,7.89L781.21,550s10.15,20.3-6.76,16.92-14.66-11.28-14.66-11.28-5.64-3.38-4.52-4.51,1.13-18,1.13-18Z" transform="translate(-97.18)"/><path class="cls-1" d="M714.67,208.32l13.8-20.3,25.68,13.53,3.38,117.29s-14.66-9-37.22,2.26-37.21,3.38-37.21,3.38l13.53-50.75L691,206.06l8.07-7.32Z" transform="translate(-97.18)"/><path class="cls-5" d="M699.06,196.61l-4.69,3.81s-29.32,14.66-30.45,24.81l20.3,55.27s5.64,12.4,1.13,16.91-9,15.79-7.89,21.43-6.77,29.32,2.25,29.32S710.16,294,709,272.6,707.13,195.05,699.06,196.61Z" transform="translate(-97.18)"/><path class="cls-5" d="M674.07,218.47l-7,.74s-6.58,4.9-6.58,16.17-1.13,45.12-1.13,45.12-2.25,16.91,4.51,29.32,7.9,15.79,7.9,15.79l11.28-13.54V283.88l4.51-18Z" transform="translate(-97.18)"/><path class="cls-5" d="M725.08,183.38l11,4.64s38.35,10.15,44,27.06L764.3,254.56s11.27,72.18,7.89,72.18h-3.38s9,6.76,3.38,9-19.17,20.3-22.55,12.4S726,246.66,728.21,226.36,723.07,185.5,725.08,183.38Z" transform="translate(-97.18)"/><path class="cls-5" d="M709.6,139V136.7H704s-9-5.64-16.92,1.13S675.76,148,675.76,148l-3.38,4.51,3.38,1.13L672.38,157h3.38l-2.25,3.39,6.32,8.45s-.68-8.45,6.08-8.45,14.67-9,14.67-9l16.91,12.41s-1.13-6.74,2.82-6.75C720.31,157,722,140.09,709.6,139Z" transform="translate(-97.18)"/><path class="cls-4" d="M788,320l-2.26,23.68s0,35-12.4,31.58-2.26-32.7-2.26-32.7l1.72-21.21Z" transform="translate(-97.18)"/><path class="cls-5" d="M763.17,209.45s14.66-5.64,19.17,11.27,10.15,50.75,10.15,50.75a50.79,50.79,0,0,1,0,37.22l-3.38,16.92-19.17-2.26L765.42,285l-4.51-48.5Z" transform="translate(-97.18)"/></svg>